<svg
    version="1.0"
    xmlns="http://www.w3.org/2000/svg"
    width="2880.000000pt"
    height="160.000000pt"
    viewBox="0 0 2880.000000 160.000000"
    preserveAspectRatio="xMidYMid meet"
>
<g
    transform="translate(0.000000,160.000000) scale(0.100000,-0.100000)"
    fill="white"
    stroke="none"
>
    <path
        d="M13090 1594 c-1208 -29 -1864 -53 -2820 -104 -2993 -162 -6317 -513
    -9655 -1021 -253 -38 -495 -75 -537 -81 l-78 -11 0 -189 0 -188 14400 0 14400
    0 0 188 0 188 -142 22 c-79 12 -294 44 -478 72 -3498 530 -6979 889 -10065
    1039 -624 31 -1020 46 -1815 72 -295 9 -2910 20 -3210 13z"
    />
    </g>
</svg>